<?xml version="1.0" encoding="utf-8"?>
<!-- Generator: Adobe Illustrator 18.1.1, SVG Export Plug-In . SVG Version: 6.00 Build 0)  -->
<svg version="1.1" id="Layer_1" xmlns="http://www.w3.org/2000/svg" xmlns:xlink="http://www.w3.org/1999/xlink" x="0px" y="0px"
	 viewBox="-260.1 296.5 64.6 21.7" enable-background="new -260.1 296.5 64.6 21.7" xml:space="preserve">
<path d="M-196.2,306.7h-63.1c-0.4,0-0.7,0.3-0.7,0.7v4.5c0,0,0,0,0,0c0.1,3.5,3.3,6.3,7.2,6.3h49.7c0.1,0,0.2,0,0.3-0.1
	c3.5-1.7,7.3-6.4,7.3-10.7C-195.5,307-195.8,306.7-196.2,306.7z M-198,311.1c-0.3,0.5-0.5,1-0.9,1.5c-1.2,1.7-2.8,3.2-4.5,4.1h-49.6
	c-2.8,0-5.2-1.8-5.7-4.1c-0.1-0.3-0.1-0.5-0.1-0.8v-3.6h61.6C-197.1,309.1-197.5,310.1-198,311.1z M-244.1,297.3v9.4h-1.5V298h-10.2
	v8.6h-1.5v-9.4c0-0.4,0.3-0.7,0.7-0.7h11.7C-244.4,296.5-244.1,296.9-244.1,297.3z M-227,302.8v3.9h-1.5v-3.2h-7.4v3.2h-1.5v-3.9
	c0-0.4,0.3-0.7,0.7-0.7h8.8C-227.4,302-227,302.3-227,302.8z M-218.2,302.8v3.9h-1.5v-3.2h-7.4v3.2h-1.5v-3.9c0-0.4,0.3-0.7,0.7-0.7
	h8.8C-218.5,302-218.2,302.3-218.2,302.8z M-209.4,302.8v3.9h-1.5v-3.2h-7.4v3.2h-1.5v-3.9c0-0.4,0.3-0.7,0.7-0.7h8.8
	C-209.7,302-209.4,302.3-209.4,302.8z M-250.7,305.6c-1.8,0-3.2-1.4-3.2-3.2c0-1.8,1.4-3.2,3.2-3.2s3.2,1.4,3.2,3.2
	C-247.5,304.1-248.9,305.6-250.7,305.6z M-250.7,300.6c-1,0-1.7,0.8-1.7,1.7s0.8,1.7,1.7,1.7s1.7-0.8,1.7-1.7
	S-249.8,300.6-250.7,300.6z"/>
</svg>
